<svg width="25" height="24" viewBox="0 0 25 24" fill="none" xmlns="http://www.w3.org/2000/svg">
<path fill-rule="evenodd" clip-rule="evenodd" d="M12.9617 1.4082C7.12929 1.4082 2.40527 6.13222 2.40527 11.9647C2.40527 16.6359 5.42706 20.5814 9.62325 21.9801C10.1511 22.0725 10.349 21.7558 10.349 21.4787C10.349 21.228 10.3358 20.3966 10.3358 19.5125C7.68351 20.0008 6.99733 18.866 6.78621 18.2722C6.66745 17.9687 6.15282 17.0318 5.70417 16.7811C5.33469 16.5831 4.80687 16.0949 5.69097 16.0817C6.52229 16.0685 7.1161 16.847 7.31403 17.1637C8.26411 18.7604 9.7816 18.3117 10.3886 18.0346C10.481 17.3485 10.7581 16.8866 11.0616 16.6227C8.71276 16.3588 6.25838 15.4483 6.25838 11.4105C6.25838 10.2624 6.66745 9.31236 7.34042 8.5734C7.23486 8.30949 6.86538 7.22745 7.44598 5.77594C7.44598 5.77594 8.33009 5.49883 10.349 6.85798C11.1935 6.62046 12.0908 6.5017 12.9881 6.5017C13.8854 6.5017 14.7827 6.62046 15.6272 6.85798C17.6462 5.48564 18.5303 5.77594 18.5303 5.77594C19.1109 7.22745 18.7414 8.30949 18.6358 8.5734C19.3088 9.31236 19.7179 10.2492 19.7179 11.4105C19.7179 15.4615 17.2503 16.3588 14.9015 16.6227C15.2842 16.9526 15.614 17.586 15.614 18.5757C15.614 19.9876 15.6009 21.1224 15.6009 21.4787C15.6009 21.7558 15.7988 22.0857 16.3266 21.9801C18.4222 21.2726 20.2432 19.9257 21.5333 18.1291C22.8234 16.3324 23.5176 14.1765 23.5182 11.9647C23.5182 6.13222 18.7942 1.4082 12.9617 1.4082Z" fill="#264478"/>
</svg>
