<svg width="48" height="48" viewBox="0 0 48 48" fill="none" xmlns="http://www.w3.org/2000/svg">
<rect x="3" y="3" width="42" height="42" rx="4" fill="#FFCA28"/>
<path d="M28.5 37.9313L31.5923 35.8851C31.8346 36.6465 33.3692 38.4547 35.3077 38.4547C37.2462 38.4547 38.1462 37.396 38.1462 36.6941C38.1462 34.7813 36.1668 34.1069 35.2161 33.783C35.0611 33.7302 34.9334 33.6867 34.8462 33.6486C34.8014 33.6292 34.7337 33.6033 34.6468 33.5701C33.5895 33.1661 29.6885 31.6757 29.6885 27.3555C29.6885 22.597 34.2808 22.0498 35.3192 22.0498C35.9986 22.0498 39.2654 22.1331 40.8923 25.1904L37.8923 27.2842C37.2346 25.9518 36.1419 25.5116 35.4692 25.5116C33.8077 25.5116 33.4615 26.7297 33.4615 27.2842C33.4615 28.84 35.2667 29.5373 36.791 30.1261C37.1898 30.2802 37.5693 30.4268 37.8923 30.5794C39.5538 31.3646 42 32.6493 42 36.6941C42 38.72 40.3008 41.9998 36.0231 41.9998C30.2769 41.9998 28.7538 38.5499 28.5 37.9313Z" fill="#3E3E3E"/>
<path d="M13.5 38.3376L16.723 36.2925C16.9756 37.0535 17.9569 38.4565 19.3808 38.4565C20.8047 38.4565 21.5335 36.994 21.5335 36.2925V22.4998H25.4973V36.2925C25.5614 38.1949 24.5063 41.9998 19.8498 41.9998C15.5685 41.9998 13.7886 39.4553 13.5 38.3376Z" fill="#3E3E3E"/>
</svg>
