<svg width="96" height="32" viewBox="0 0 96 32" fill="none" xmlns="http://www.w3.org/2000/svg">
<path fill-rule="evenodd" clip-rule="evenodd" d="M27.2805 0.702447C26.5234 1.09148 25.6444 1.82226 25.1613 2.46407C24.7076 3.06737 22.3491 7.14808 19.9205 11.5323C17.4917 15.9167 15.4322 19.3719 15.3438 19.2106C15.2551 19.0495 14.0267 14.7767 12.6137 9.7158L10.0447 0.514025H4.96261C1.00488 0.514025 -0.09145 0.581545 0.00583902 0.81872C0.0743598 0.986423 1.98326 7.15637 4.24785 14.53C6.52551 21.9465 8.64651 28.3958 8.99513 28.9642C10.9171 32.0996 15.3362 32.6093 18.1377 30.0189C18.8326 29.3764 20.873 26.1491 24.5206 19.9233C27.4693 14.8903 29.9408 10.7691 30.0127 10.7649C30.0846 10.761 30.8211 11.9903 31.6491 13.4969C34.5207 18.7216 41.0254 29.16 41.9751 30.0675C44.5446 32.5228 48.8679 32.2076 50.8929 29.4174C51.2552 28.9179 52.6196 25.067 54.2408 19.9679C57.2149 10.6131 57.4218 10.1904 59.5888 9.04548L60.7424 8.43609L73.5574 8.35784L86.3723 8.27984L89.3778 4.64642C91.0309 2.64786 92.4236 0.90062 92.4727 0.763386C92.5944 0.423103 58.3369 0.420912 56.3974 0.761195C53.3218 1.30087 50.4549 3.26261 49.1446 5.72406C48.5324 6.87434 46.795 12.6314 45.6898 17.172L45.1061 19.5704L42.5831 14.9782C38.4384 7.43498 35.7289 2.91429 34.7385 1.89076C32.833 -0.0792773 29.7567 -0.56947 27.2805 0.702447Z" fill="#F2F5FA"/>
<path fill-rule="evenodd" clip-rule="evenodd" d="M62.0034 10.3635C60.889 10.767 59.9446 11.5355 59.5074 12.394C59.1396 13.1165 57.5258 17.996 57.521 18.3999C57.5182 18.639 60.1881 19.3337 62.0962 19.5904C63.1031 19.7257 68.5775 19.8386 74.2615 19.8413C83.8351 19.8459 84.6631 19.8795 85.5073 20.3C86.612 20.8504 87.0323 21.7586 86.5955 22.6522C85.9619 23.948 85.5188 23.99 72.4609 23.99H60.4481L57.3492 27.7699C55.6448 29.8489 54.209 31.6644 54.1588 31.8043C54.0955 31.9796 58.9689 32.0342 69.8506 31.9798C85.4134 31.9023 85.6582 31.8935 87.3843 31.3526C90.927 30.2425 93.711 27.9005 94.977 24.965C95.4295 23.9166 95.5571 23.1185 95.5636 21.3033C95.5712 19.1692 95.5035 18.8528 94.722 17.3735C93.2078 14.5067 90.1678 12.5605 86.4185 12.0574C85.4116 11.9224 80.0918 11.8097 74.5966 11.8071C65.0698 11.8024 63.2731 11.6869 63.2731 11.0785C63.2731 10.9915 63.1261 10.745 62.9462 10.5305C62.7006 10.2378 62.4658 10.1963 62.0034 10.3635Z" fill="#0A9C51"/>
</svg>
