<svg width="18" height="28" viewBox="0 0 18 28" fill="none" xmlns="http://www.w3.org/2000/svg">
<path d="M8.99921 27.3332C6.78911 27.3332 4.66953 26.4553 3.10675 24.8925C1.54397 23.3297 0.666016 21.2101 0.666016 19V9.00019C0.666016 6.79009 1.54397 4.67051 3.10675 3.10773C4.66953 1.54495 6.78911 0.666992 8.99921 0.666992C11.2093 0.666992 13.3289 1.54495 14.8917 3.10773C16.4545 4.67051 17.3324 6.79009 17.3324 9.00019V19C17.3324 20.0944 17.1169 21.178 16.6981 22.189C16.2793 23.2 15.6655 24.1187 14.8917 24.8925C14.1179 25.6663 13.1992 26.2801 12.1882 26.6989C11.1772 27.1177 10.0935 27.3332 8.99921 27.3332ZM8.99921 2.33363C7.23113 2.33363 5.53547 3.036 4.28524 4.28622C3.03502 5.53644 2.33266 7.23211 2.33266 9.00019V19C2.33266 20.7681 3.03502 22.4638 4.28524 23.714C5.53547 24.9642 7.23113 25.6666 8.99921 25.6666C10.7673 25.6666 12.463 24.9642 13.7132 23.714C14.9634 22.4638 15.6658 20.7681 15.6658 19V9.00019C15.6658 7.23211 14.9634 5.53644 13.7132 4.28622C12.463 3.036 10.7673 2.33363 8.99921 2.33363Z" fill="#289B5F"/>
<path d="M8.99934 11.4999C8.77833 11.4999 8.56637 11.4121 8.41009 11.2558C8.25381 11.0996 8.16602 10.8876 8.16602 10.6666V7.33332C8.16602 7.11231 8.25381 6.90035 8.41009 6.74407C8.56637 6.5878 8.77833 6.5 8.99934 6.5C9.22035 6.5 9.4323 6.5878 9.58858 6.74407C9.74486 6.90035 9.83266 7.11231 9.83266 7.33332V10.6666C9.83266 10.8876 9.74486 11.0996 9.58858 11.2558C9.4323 11.4121 9.22035 11.4999 8.99934 11.4999Z" fill="#289B5F"/>
</svg>
