<svg width="48" height="48" viewBox="0 0 48 48" fill="none" xmlns="http://www.w3.org/2000/svg">
<path d="M25.7587 3.44808C24.694 2.84929 23.306 2.85199 22.2404 3.44808C16.9033 6.3934 11.5662 9.33961 6.22824 12.2836C5.18954 12.83 4.48896 13.9455 4.50013 15.1033V32.8992C4.49263 34.0795 5.22933 35.2058 6.29482 35.7447C7.82807 36.5604 9.3177 37.459 10.8787 38.2203C12.6818 39.1063 14.9376 39.3023 16.7628 38.3783C18.2443 37.6124 18.9023 35.9093 18.9005 34.344C18.9124 28.4709 18.9023 22.5976 18.9051 16.7245C18.9403 16.4634 18.7444 16.1845 18.4597 16.1907C17.7776 16.18 17.0946 16.1845 16.4126 16.1889C16.1548 16.1646 15.9033 16.3786 15.9228 16.6377C15.9136 22.473 15.9246 28.3101 15.9173 34.1463C15.9321 34.9536 15.3867 35.7295 14.6087 36.0022C12.8118 36.632 7.68297 33.3018 7.68297 33.3018C7.49475 33.2147 7.37523 33.0105 7.39367 32.8078C7.39367 26.9364 7.39459 21.0649 7.39367 15.1945C7.36781 14.9579 7.51368 14.7447 7.73103 14.6481C13.0505 11.7201 18.3672 8.78481 23.6867 5.85504C23.8714 5.73173 24.129 5.7321 24.3133 5.85594C29.6328 8.78481 34.9504 11.7174 40.2708 14.6455C40.4889 14.742 40.6285 14.9588 40.6063 15.1945C40.6054 21.0649 40.6082 26.9364 40.6045 32.8069C40.6203 33.0147 40.513 33.216 40.3189 33.3072C35.0491 36.2193 29.7193 39.0375 24.4972 42.0341C24.2694 42.1649 24.0113 42.3129 23.756 42.1689C22.3827 41.4093 21.0261 40.6201 19.6574 39.8532C19.5086 39.7603 19.3191 39.7205 19.1639 39.8243C18.5501 40.1477 17.973 40.4097 17.2684 40.6886C16.2785 41.0804 16.4367 41.2407 17.3293 41.7607C18.93 42.6666 20.5334 43.5689 22.134 44.4757C23.1877 45.1332 24.6035 45.1801 25.6912 44.5723C31.0292 41.6307 36.3654 38.6855 41.7043 35.744C42.767 35.202 43.5074 34.0803 43.4999 32.899V15.1033C43.5101 13.969 42.8363 12.8734 41.829 12.3189C36.4734 9.35921 31.1152 6.40596 25.7587 3.44808Z" fill="#8CC84B"/>
<path d="M33.8128 16.8094C31.7178 15.6885 29.2254 15.6289 26.8973 15.7753C25.2154 15.9415 23.4464 16.4056 22.2209 17.6113C20.9641 18.8234 20.6906 20.7805 21.2875 22.3628C21.7154 23.4808 22.7922 24.2079 23.9057 24.5925C25.3403 25.0989 26.8468 25.2554 28.3539 25.4121C29.7285 25.5549 31.1036 25.6978 32.4248 26.1063C32.9645 26.2852 33.593 26.5588 33.7583 27.1459C33.9109 27.8413 33.7436 28.6496 33.1789 29.1328C31.3855 30.5523 26.3968 30.3348 24.6248 29.2176C23.9085 28.7416 23.5998 27.899 23.4742 27.0962C23.4603 26.846 23.2589 26.6165 22.9872 26.6355C22.307 26.6274 21.6267 26.6292 20.9465 26.6346C20.7091 26.6147 20.4624 26.7836 20.4494 27.0258C20.3096 30.7033 23.687 32.3065 26.8558 32.6595C28.6662 32.832 30.5164 32.8221 32.2991 32.4336C33.6392 32.1285 34.9828 31.5667 35.9053 30.5344C37.0429 29.28 37.2666 27.4123 36.7564 25.8497C36.3664 24.6839 35.2518 23.936 34.1123 23.5512C32.5629 23.0199 30.7266 22.7344 29.3232 22.6007C27.2833 22.4064 24.8593 22.4858 24.282 21.1453C24.0518 20.4435 24.2477 19.572 24.8927 19.1403C26.5993 17.9827 30.0724 18.1365 31.8398 19.0012C32.6513 19.4076 33.1215 20.2422 33.3156 21.0848C33.3516 21.3323 33.5181 21.5905 33.8047 21.5797C34.4801 21.5932 35.1558 21.5833 35.8313 21.5842C36.0633 21.6005 36.3174 21.4695 36.3627 21.2319C36.3341 19.4709 35.4348 17.6683 33.8128 16.8094Z" fill="#8CC84B"/>
</svg>
