<svg width="48" height="48" viewBox="0 0 48 48" fill="none" xmlns="http://www.w3.org/2000/svg">
<path d="M28.0183 23.9639C28.0183 21.8122 26.2194 20.0678 24 20.0678C21.7808 20.0678 19.9817 21.8122 19.9817 23.9639C19.9817 26.1157 21.7808 27.8601 24 27.8601C26.2194 27.8601 28.0183 26.1157 28.0183 23.9639Z" fill="#53C1DE"/>
<path fill-rule="evenodd" clip-rule="evenodd" d="M37.0505 16.7306C37.8992 13.3872 38.9658 7.18722 35.2056 5.08524C31.463 2.99242 26.5927 7.00264 24.0209 9.40978C21.4566 7.02663 16.4495 3.03355 12.6924 5.1422C8.95126 7.24204 10.105 13.3392 10.9724 16.7035C7.48247 17.6646 1.5 19.7346 1.5 23.9639C1.5 28.1811 7.47624 30.4332 10.9455 31.3933C10.0749 34.7763 8.97894 40.7864 12.7249 42.8815C16.4959 44.9898 21.4875 41.0918 24.083 38.6583C26.6713 41.0796 31.4949 45.0031 35.2383 42.9021C38.9935 40.7945 38.0154 34.6776 37.1479 31.2937C40.5109 30.3315 46.5 28.1285 46.5 23.9639C46.5 19.7752 40.4855 17.6884 37.0505 16.7306ZM36.6244 29.5004C36.0548 27.7524 35.286 25.8934 34.3456 23.9731C35.2432 22.0982 35.9821 20.2632 36.5357 18.5263C39.0538 19.2341 44.5778 20.8519 44.5778 23.9639C44.5778 27.1049 39.277 28.7381 36.6244 29.5004ZM34.2749 41.289C31.4821 42.8565 27.3332 39.1045 25.4218 37.3213C26.6898 35.9766 27.957 34.4133 29.1937 32.6774C31.3693 32.4903 33.4246 32.1843 35.2884 31.7666C35.8989 34.1601 37.0803 39.7144 34.2749 41.289ZM13.6854 41.2666C10.8921 39.705 12.1689 34.3419 12.8093 31.85C14.6525 32.2453 16.6929 32.5297 18.8736 32.7012C20.1185 34.3998 21.4224 35.9612 22.7364 37.3285C21.1129 38.8511 16.4918 42.8355 13.6854 41.2666ZM3.42223 23.9639C3.42223 20.811 8.9131 19.205 11.4886 18.4989C12.0518 20.2748 12.7904 22.1316 13.6818 24.0092C12.7789 25.9149 12.0297 27.8012 11.4613 29.598C9.00554 28.9164 3.42223 27.1187 3.42223 23.9639ZM13.6556 6.75531C16.4603 5.18125 20.8121 9.01474 22.6738 10.7402C21.3666 12.1013 20.0747 13.6509 18.8405 15.3397C16.7241 15.5299 14.6981 15.8354 12.8356 16.2445C12.1369 13.5311 10.8539 8.32768 13.6556 6.75531ZM30.5689 17.3656C32.0048 17.5414 33.3803 17.775 34.6721 18.061C34.2843 19.2661 33.801 20.5262 33.2318 21.818C32.4066 20.2999 31.5208 18.8124 30.5689 17.3656ZM24.0215 12.0722C24.9081 13.0035 25.7962 14.0435 26.6697 15.1717C24.8978 15.0905 23.123 15.0901 21.3511 15.1705C22.2253 14.0527 23.1209 13.0143 24.0215 12.0722ZM14.7848 21.8167C14.2249 20.5293 13.746 19.2636 13.3548 18.0413C14.6388 17.7626 16.008 17.535 17.4345 17.3622C16.4799 18.8057 15.5956 20.2927 14.7848 21.8167ZM17.4755 30.6986C16.0018 30.5391 14.6119 30.323 13.3283 30.0521C13.7257 28.8082 14.2152 27.5152 14.7869 26.2003C15.609 27.7399 16.5067 29.2413 17.4755 30.6986ZM24.0747 35.9872C23.1636 35.0339 22.2548 33.9796 21.3672 32.8456C23.1493 32.9135 24.9347 32.9136 26.7165 32.8365C25.8402 33.9912 24.9553 35.0471 24.0747 35.9872ZM33.2501 26.1333C33.8515 27.4625 34.3586 28.7485 34.7613 29.9714C33.4564 30.2601 32.0478 30.4926 30.5635 30.6652C31.5225 29.1911 32.4223 27.6804 33.2501 26.1333ZM28.1209 30.8911C25.3952 31.0799 22.6523 31.0779 19.9257 30.9066C18.3763 28.7122 16.9972 26.4044 15.8066 24.0087C16.9913 21.6178 18.3605 19.3146 19.9026 17.1237C22.6313 16.9237 25.3767 16.9232 28.1054 17.1249C29.6341 19.3157 31.0013 21.6129 32.2135 23.9822C31.0156 26.3719 29.6393 28.6797 28.1209 30.8911ZM34.2455 6.69989C37.0509 8.26881 35.8021 13.8409 35.1893 16.2638C33.3224 15.8462 31.295 15.5353 29.1724 15.3422C27.9359 13.6351 26.6547 12.0828 25.3686 10.7392C27.2543 8.97661 31.4671 5.14633 34.2455 6.69989Z" fill="#53C1DE"/>
</svg>
