<svg width="44" height="44" viewBox="0 0 44 44" fill="none" xmlns="http://www.w3.org/2000/svg">
<path fill-rule="evenodd" clip-rule="evenodd" d="M26.0475 23.7865C25.824 23.6747 24.7283 23.1362 24.5243 23.0612C24.3203 22.987 24.1718 22.9502 24.0225 23.1737C23.874 23.3957 23.4473 23.8982 23.3175 24.0467C23.187 24.196 23.0573 24.214 22.8345 24.103C22.6118 23.9905 21.8933 23.7557 21.042 22.9967C20.3798 22.4057 19.9321 21.676 19.8023 21.4525C19.6726 21.2297 19.7881 21.109 19.8998 20.998C20.0003 20.8982 20.1226 20.7378 20.2343 20.608C20.346 20.4775 20.3828 20.3845 20.457 20.2353C20.532 20.0868 20.4945 19.957 20.4383 19.8453C20.3828 19.7335 19.9373 18.6363 19.7513 18.19C19.5706 17.7558 19.3868 17.815 19.2503 17.8075C19.1198 17.8015 18.9713 17.8 18.8228 17.8C18.6743 17.8 18.4328 17.8555 18.2288 18.079C18.0241 18.3018 17.4488 18.841 17.4488 19.9383C17.4488 21.0347 18.2468 22.0945 18.3586 22.2437C18.4703 22.3922 19.9298 24.6437 22.1655 25.609C22.698 25.8385 23.1128 25.9757 23.436 26.0777C23.97 26.248 24.456 26.224 24.84 26.1662C25.2675 26.1025 26.1585 25.627 26.3445 25.1065C26.5298 24.586 26.5298 24.1397 26.4743 24.0467C26.4188 23.9537 26.2703 23.8982 26.0468 23.7865H26.0475ZM21.981 29.3387H21.978C20.6501 29.339 19.3466 28.982 18.2041 28.3052L17.9341 28.1447L15.1276 28.8812L15.8768 26.1452L15.7006 25.8647C14.9582 24.683 14.5653 23.3153 14.5673 21.9197C14.5688 17.8323 17.8943 14.5068 21.984 14.5068C23.964 14.5068 25.8255 15.2793 27.225 16.6803C27.9153 17.3677 28.4624 18.1852 28.8347 19.0854C29.207 19.9857 29.3971 20.9508 29.394 21.925C29.3925 26.0125 26.067 29.3387 21.981 29.3387ZM28.29 15.616C27.4637 14.7842 26.4804 14.1247 25.3973 13.6756C24.3142 13.2266 23.1528 12.9969 21.9803 13C17.0648 13 13.0628 17.0013 13.0613 21.919C13.0591 23.4841 13.4696 25.022 14.2516 26.3777L12.9863 31L17.7143 29.7595C19.0222 30.4721 20.4879 30.8454 21.9773 30.8455H21.981C26.8965 30.8455 30.8985 26.8442 30.9 21.9257C30.9036 20.7537 30.6748 19.5926 30.2268 18.5095C29.7788 17.4265 29.1205 16.443 28.29 15.616Z" fill="#289B5F"/>
<rect x="0.5" y="0.5" width="43" height="43" rx="3.5" stroke="url(#paint0_linear_238_408)" stroke-opacity="0.5"/>
<defs>
<linearGradient id="paint0_linear_238_408" x1="-9" y1="-11.5" x2="51" y2="55.5" gradientUnits="userSpaceOnUse">
<stop stop-color="#112140"/>
<stop offset="0.520878" stop-color="#A1B5DC"/>
<stop offset="1" stop-color="#112140"/>
</linearGradient>
</defs>
</svg>
