<svg width="44" height="44" viewBox="0 0 44 44" fill="none" xmlns="http://www.w3.org/2000/svg">
<path fill-rule="evenodd" clip-rule="evenodd" d="M21.9998 11.4082C16.1674 11.4082 11.4434 16.1322 11.4434 21.9647C11.4434 26.6359 14.4651 30.5814 18.6613 31.9801C19.1892 32.0725 19.3871 31.7558 19.3871 31.4787C19.3871 31.228 19.3739 30.3966 19.3739 29.5125C16.7216 30.0008 16.0354 28.866 15.8243 28.2722C15.7055 27.9687 15.1909 27.0318 14.7423 26.7811C14.3728 26.5831 13.845 26.0949 14.7291 26.0817C15.5604 26.0685 16.1542 26.847 16.3521 27.1637C17.3022 28.7604 18.8197 28.3117 19.4267 28.0346C19.5191 27.3485 19.7962 26.8866 20.0997 26.6227C17.7508 26.3588 15.2965 25.4483 15.2965 21.4105C15.2965 20.2624 15.7055 19.3124 16.3785 18.5734C16.2729 18.3095 15.9035 17.2275 16.4841 15.7759C16.4841 15.7759 17.3682 15.4988 19.3871 16.858C20.2316 16.6205 21.1289 16.5017 22.0262 16.5017C22.9235 16.5017 23.8208 16.6205 24.6653 16.858C26.6843 15.4856 27.5684 15.7759 27.5684 15.7759C28.149 17.2275 27.7795 18.3095 27.6739 18.5734C28.3469 19.3124 28.756 20.2492 28.756 21.4105C28.756 25.4615 26.2884 26.3588 23.9396 26.6227C24.3222 26.9526 24.6521 27.586 24.6521 28.5757C24.6521 29.9876 24.6389 31.1224 24.6389 31.4787C24.6389 31.7558 24.8369 32.0857 25.3647 31.9801C27.4603 31.2726 29.2813 29.9257 30.5714 28.1291C31.8615 26.3324 32.5557 24.1765 32.5563 21.9647C32.5563 16.1322 27.8323 11.4082 21.9998 11.4082Z" fill="#289B5F"/>
<rect x="0.5" y="0.5" width="43" height="43" rx="3.5" stroke="url(#paint0_linear_238_403)" stroke-opacity="0.5"/>
<defs>
<linearGradient id="paint0_linear_238_403" x1="-9" y1="-11.5" x2="51" y2="55.5" gradientUnits="userSpaceOnUse">
<stop stop-color="#112140"/>
<stop offset="0.520878" stop-color="#A1B5DC"/>
<stop offset="1" stop-color="#112140"/>
</linearGradient>
</defs>
</svg>
