<svg width="44" height="44" viewBox="0 0 44 44" fill="none" xmlns="http://www.w3.org/2000/svg">
<path d="M29.5 16.0067C29.5 16.0067 28.1241 16.8039 27.3591 17.0299C26.9485 16.5668 26.4027 16.2386 25.7957 16.0896C25.1887 15.9406 24.5497 15.9781 23.9651 16.197C23.3805 16.4158 22.8785 16.8055 22.527 17.3133C22.1756 17.8211 21.9916 18.4225 22 19.0362V19.705C20.8018 19.7354 19.6145 19.4748 18.5439 18.9462C17.4732 18.4177 16.5525 17.6376 15.8636 16.6755C15.8636 16.6755 13.1364 22.6943 19.2727 25.3694C17.8685 26.3043 16.1958 26.773 14.5 26.7069C20.6364 30.0507 28.1364 26.7069 28.1364 19.0161C28.1364 18.8302 28.1173 18.6443 28.0818 18.4611C28.7773 17.7883 29.5 16.0067 29.5 16.0067Z" fill="#289B5F" stroke="#289B5F" stroke-width="1.125" stroke-linecap="round" stroke-linejoin="round"/>
<rect x="0.5" y="0.5" width="43" height="43" rx="3.5" stroke="url(#paint0_linear_407_1038)" stroke-opacity="0.5"/>
<defs>
<linearGradient id="paint0_linear_407_1038" x1="-9" y1="-11.5" x2="51" y2="55.5" gradientUnits="userSpaceOnUse">
<stop stop-color="#112140"/>
<stop offset="0.520878" stop-color="#A1B5DC"/>
<stop offset="1" stop-color="#112140"/>
</linearGradient>
</defs>
</svg>
