<svg width="44" height="44" viewBox="0 0 44 44" fill="none" xmlns="http://www.w3.org/2000/svg">
<path fill-rule="evenodd" clip-rule="evenodd" d="M18.2895 13.054C19.2493 13.0098 19.5553 13 22 13C24.4447 13 24.7507 13.0106 25.7096 13.054C26.6685 13.0974 27.3231 13.2504 27.8958 13.4721C28.4955 13.6987 29.0396 14.053 29.4896 14.5112C29.9478 14.9604 30.3013 15.5036 30.5271 16.1042C30.7496 16.6769 30.9018 17.3315 30.946 18.2887C30.9902 19.2501 31 19.5561 31 22C31 24.4447 30.9894 24.7507 30.946 25.7105C30.9026 26.6677 30.7496 27.3223 30.5271 27.895C30.3013 28.4956 29.9472 29.0398 29.4896 29.4896C29.0396 29.9478 28.4955 30.3013 27.8958 30.5271C27.3231 30.7496 26.6685 30.9018 25.7113 30.946C24.7507 30.9902 24.4447 31 22 31C19.5553 31 19.2493 30.9894 18.2895 30.946C17.3323 30.9026 16.6777 30.7496 16.105 30.5271C15.5044 30.3012 14.9602 29.9472 14.5104 29.4896C14.0525 29.0402 13.6982 28.4963 13.4721 27.8958C13.2504 27.3231 13.0982 26.6685 13.054 25.7113C13.0098 24.7499 13 24.4439 13 22C13 19.5553 13.0106 19.2493 13.054 18.2904C13.0974 17.3315 13.2504 16.6769 13.4721 16.1042C13.6985 15.5037 14.0531 14.9598 14.5112 14.5104C14.9604 14.0526 15.504 13.6983 16.1042 13.4721C16.6769 13.2504 17.3315 13.0982 18.2887 13.054H18.2895ZM25.6368 14.674C24.6877 14.6306 24.403 14.6216 22 14.6216C19.597 14.6216 19.3123 14.6306 18.3632 14.674C17.4853 14.7141 17.0091 14.8605 16.6916 14.9841C16.2719 15.1477 15.9716 15.3416 15.6566 15.6566C15.358 15.9471 15.1282 16.3008 14.9841 16.6916C14.8605 17.0091 14.7141 17.4853 14.674 18.3632C14.6306 19.3123 14.6216 19.597 14.6216 22C14.6216 24.403 14.6306 24.6877 14.674 25.6368C14.7141 26.5147 14.8605 26.9909 14.9841 27.3084C15.1281 27.6986 15.358 28.0529 15.6566 28.3434C15.9471 28.642 16.3014 28.8719 16.6916 29.0159C17.0091 29.1395 17.4853 29.2859 18.3632 29.326C19.3123 29.3694 19.5962 29.3784 22 29.3784C24.4038 29.3784 24.6877 29.3694 25.6368 29.326C26.5147 29.2859 26.9909 29.1395 27.3084 29.0159C27.7281 28.8523 28.0284 28.6584 28.3434 28.3434C28.642 28.0529 28.8719 27.6986 29.0159 27.3084C29.1395 26.9909 29.2859 26.5147 29.326 25.6368C29.3694 24.6877 29.3784 24.403 29.3784 22C29.3784 19.597 29.3694 19.3123 29.326 18.3632C29.2859 17.4853 29.1395 17.0091 29.0159 16.6916C28.8523 16.2719 28.6584 15.9716 28.3434 15.6566C28.0528 15.3581 27.6992 15.1283 27.3084 14.9841C26.9909 14.8605 26.5147 14.7141 25.6368 14.674ZM20.8505 24.7745C21.4924 25.0417 22.2073 25.0778 22.8729 24.8765C23.5386 24.6752 24.1137 24.2491 24.5 23.6709C24.8864 23.0927 25.06 22.3983 24.9913 21.7064C24.9226 21.0144 24.6157 20.3677 24.1232 19.8768C23.8092 19.563 23.4295 19.3228 23.0115 19.1733C22.5936 19.0238 22.1476 18.9689 21.7059 19.0125C21.2641 19.0561 20.8375 19.1971 20.4567 19.4253C20.076 19.6535 19.7506 19.9633 19.504 20.3324C19.2573 20.7015 19.0956 21.1207 19.0304 21.5598C18.9652 21.9989 18.9982 22.447 19.127 22.8718C19.2558 23.2966 19.4771 23.6876 19.7751 24.0166C20.0731 24.3456 20.4404 24.6044 20.8505 24.7745ZM18.7289 18.7289C19.1585 18.2993 19.6684 17.9586 20.2297 17.7261C20.791 17.4936 21.3925 17.374 22 17.374C22.6075 17.374 23.209 17.4936 23.7703 17.7261C24.3316 17.9586 24.8415 18.2993 25.2711 18.7289C25.7007 19.1585 26.0414 19.6684 26.2739 20.2297C26.5064 20.791 26.626 21.3925 26.626 22C26.626 22.6075 26.5064 23.209 26.2739 23.7703C26.0414 24.3316 25.7007 24.8415 25.2711 25.2711C24.4035 26.1386 23.2269 26.626 22 26.626C20.7731 26.626 19.5965 26.1386 18.7289 25.2711C17.8614 24.4035 17.374 23.2269 17.374 22C17.374 20.7731 17.8614 19.5965 18.7289 18.7289ZM27.652 18.0629C27.7584 17.9625 27.8437 17.8417 27.9026 17.7078C27.9616 17.5739 27.993 17.4294 27.9952 17.2831C27.9973 17.1368 27.97 16.9915 27.915 16.8559C27.86 16.7203 27.7784 16.5971 27.6749 16.4937C27.5714 16.3902 27.4482 16.3085 27.3126 16.2535C27.177 16.1985 27.0317 16.1713 26.8854 16.1734C26.7391 16.1755 26.5947 16.207 26.4607 16.2659C26.3268 16.3249 26.2061 16.4101 26.1056 16.5165C25.9103 16.7236 25.8034 16.9986 25.8076 17.2831C25.8117 17.5677 25.9266 17.8394 26.1279 18.0407C26.3291 18.2419 26.6008 18.3568 26.8854 18.361C27.17 18.3651 27.445 18.2582 27.652 18.0629Z" fill="#289B5F"/>
<rect x="0.5" y="0.5" width="43" height="43" rx="3.5" stroke="url(#paint0_linear_238_413)" stroke-opacity="0.5"/>
<defs>
<linearGradient id="paint0_linear_238_413" x1="-9" y1="-11.5" x2="51" y2="55.5" gradientUnits="userSpaceOnUse">
<stop stop-color="#112140"/>
<stop offset="0.520878" stop-color="#A1B5DC"/>
<stop offset="1" stop-color="#112140"/>
</linearGradient>
</defs>
</svg>
