<svg width="44" height="44" viewBox="0 0 44 44" fill="none" xmlns="http://www.w3.org/2000/svg">
<path fill-rule="evenodd" clip-rule="evenodd" d="M20.2003 19.8783H22.8001V21.1733C23.1746 20.4285 24.135 19.7593 25.5777 19.7593C28.3434 19.7593 29 21.2419 29 23.9621V29H26.2V24.5816C26.2 23.0325 25.8255 22.1589 24.8721 22.1589C23.5498 22.1589 23.0003 23.1004 23.0003 24.5809V29H20.2003V19.8783V19.8783ZM15.399 28.881H18.199V19.7593H15.399V28.881V28.881ZM18.6001 16.785C18.6002 17.0197 18.5537 17.2521 18.4632 17.4686C18.3727 17.6852 18.2401 17.8816 18.073 18.0464C17.7345 18.3828 17.2763 18.5712 16.799 18.57C16.3226 18.5697 15.8654 18.3818 15.5264 18.0471C15.3599 17.8817 15.2278 17.6851 15.1374 17.4685C15.0471 17.2519 15.0004 17.0197 15 16.785C15 16.3111 15.189 15.8575 15.5271 15.5229C15.8658 15.1877 16.3232 14.9998 16.7997 15C17.2771 15 17.7349 15.1883 18.073 15.5229C18.4104 15.8575 18.6001 16.3111 18.6001 16.785Z" fill="#289B5F"/>
<rect x="0.5" y="0.5" width="43" height="43" rx="3.5" stroke="url(#paint0_linear_238_400)" stroke-opacity="0.5"/>
<defs>
<linearGradient id="paint0_linear_238_400" x1="-9" y1="-11.5" x2="51" y2="55.5" gradientUnits="userSpaceOnUse">
<stop stop-color="#112140"/>
<stop offset="0.520878" stop-color="#A1B5DC"/>
<stop offset="1" stop-color="#112140"/>
</linearGradient>
</defs>
</svg>
