<svg width="17" height="18" viewBox="0 0 17 18" fill="none" xmlns="http://www.w3.org/2000/svg">
<path d="M0.405623 6.87027C0.405881 5.53376 0.847188 4.23469 1.66109 3.17458C2.47498 2.11447 3.61597 1.35259 4.90706 1.00711C6.19815 0.661628 7.56716 0.751871 8.80172 1.26384C10.0363 1.7758 11.0674 2.68087 11.7351 3.83865C12.4028 4.99642 12.6698 6.34218 12.4946 7.66716C12.3194 8.99214 11.7119 10.2223 10.7662 11.1667C9.82056 12.1112 8.58966 12.7172 7.26447 12.8907C5.93927 13.0643 4.59384 12.7956 3.43691 12.1265L1.07137 12.9156C0.983977 12.9448 0.890273 12.9496 0.800372 12.9294C0.710471 12.9092 0.627788 12.8649 0.561247 12.8011C0.494705 12.7374 0.446832 12.6567 0.422794 12.5678C0.398756 12.4788 0.399465 12.385 0.424847 12.2964L1.14523 9.7761C0.658583 8.88497 0.404223 7.88562 0.405623 6.87027ZM4.95862 5.35261C4.82445 5.35261 4.69578 5.40591 4.6009 5.50078C4.50603 5.59565 4.45273 5.72433 4.45273 5.8585C4.45273 5.99267 4.50603 6.12134 4.6009 6.21621C4.69578 6.31109 4.82445 6.36439 4.95862 6.36439H7.99395C8.12812 6.36439 8.2568 6.31109 8.35167 6.21621C8.44654 6.12134 8.49984 5.99267 8.49984 5.8585C8.49984 5.72433 8.44654 5.59565 8.35167 5.50078C8.2568 5.40591 8.12812 5.35261 7.99395 5.35261H4.95862ZM6.98217 7.37616H4.95862C4.82445 7.37616 4.69578 7.42946 4.6009 7.52433C4.50603 7.61921 4.45273 7.74788 4.45273 7.88205C4.45273 8.01622 4.50603 8.1449 4.6009 8.23977C4.69578 8.33464 4.82445 8.38794 4.95862 8.38794H6.98217C7.11634 8.38794 7.24502 8.33464 7.33989 8.23977C7.43476 8.1449 7.48806 8.01622 7.48806 7.88205C7.48806 7.74788 7.43476 7.61921 7.33989 7.52433C7.24502 7.42946 7.11634 7.37616 6.98217 7.37616Z" fill="#0A9C51"/>
<path d="M10.802 14.9111L8.37171 13.6969C8.8169 13.5725 9.24488 13.4066 9.64959 13.2032L11.0286 13.8932L15.5816 11.6167V10.9176C15.5816 10.6493 15.475 10.3919 15.2853 10.2022C15.0956 10.0124 14.8382 9.90582 14.5699 9.90582H12.8761C13.0309 9.58205 13.1605 9.24311 13.2647 8.89404H14.5699C15.1065 8.89404 15.6212 9.10724 16.0007 9.48673C16.3802 9.86622 16.5934 10.3809 16.5934 10.9176V15.9765C16.5934 16.5132 16.3802 17.0279 16.0007 17.4074C15.6212 17.7868 15.1065 18 14.5699 18H7.48742C6.95074 18 6.43604 17.7868 6.05655 17.4074C5.67706 17.0279 5.46387 16.5132 5.46387 15.9765V13.8821C5.79472 13.9286 6.13164 13.9529 6.47564 13.9529V15.9765C6.47564 16.2448 6.58224 16.5022 6.77199 16.6919C6.96173 16.8817 7.21908 16.9883 7.48742 16.9883H14.5699C14.8382 16.9883 15.0956 16.8817 15.2853 16.6919C15.475 16.5022 15.5816 16.2448 15.5816 15.9765V12.7479L11.2553 14.9111C11.1849 14.9463 11.1073 14.9647 11.0286 14.9647C10.95 14.9647 10.8724 14.9463 10.802 14.9111Z" fill="#0A9C51"/>
</svg>
