<svg width="16" height="16" viewBox="0 0 16 16" fill="none" xmlns="http://www.w3.org/2000/svg">
<path fill-rule="evenodd" clip-rule="evenodd" d="M7.99938 0.0556641C3.62504 0.0556641 0.0820312 3.59868 0.0820312 7.97301C0.0820312 11.4764 2.34837 14.4355 5.49552 15.4846C5.89139 15.5539 6.03983 15.3164 6.03983 15.1085C6.03983 14.9205 6.02994 14.297 6.02994 13.6339C4.04071 14.0001 3.52608 13.149 3.36773 12.7036C3.27866 12.476 2.89269 11.7733 2.5562 11.5853C2.2791 11.4369 1.88323 11.0707 2.54631 11.0608C3.1698 11.0509 3.61515 11.6348 3.7636 11.8723C4.47616 13.0698 5.61428 12.7333 6.06953 12.5255C6.1388 12.0109 6.34663 11.6645 6.57426 11.4665C4.81265 11.2686 2.97186 10.5857 2.97186 7.55735C2.97186 6.69634 3.27866 5.98378 3.78339 5.42956C3.70422 5.23163 3.42711 4.4201 3.86256 3.33147C3.86256 3.33147 4.52564 3.12364 6.03983 4.14299C6.67322 3.96485 7.3462 3.87578 8.01917 3.87578C8.69215 3.87578 9.36512 3.96485 9.99851 4.14299C11.5127 3.11374 12.1758 3.33147 12.1758 3.33147C12.6112 4.4201 12.3341 5.23163 12.255 5.42956C12.7597 5.98378 13.0665 6.68644 13.0665 7.55735C13.0665 10.5956 11.2158 11.2686 9.45419 11.4665C9.74119 11.714 9.98861 12.189 9.98861 12.9312C9.98861 13.9902 9.97872 14.8413 9.97872 15.1085C9.97872 15.3164 10.1272 15.5638 10.523 15.4846C12.0947 14.9539 13.4605 13.9438 14.428 12.5963C15.3956 11.2488 15.9163 9.63188 15.9167 7.97301C15.9167 3.59868 12.3737 0.0556641 7.99938 0.0556641Z" fill="#F2F5FA"/>
</svg>
