<svg width="22" height="21" viewBox="0 0 22 21" fill="none" xmlns="http://www.w3.org/2000/svg">
<path fill-rule="evenodd" clip-rule="evenodd" d="M10.9617 0.408203C5.12929 0.408203 0.405273 5.13222 0.405273 10.9647C0.405273 15.6359 3.42706 19.5814 7.62325 20.9801C8.15108 21.0725 8.34901 20.7558 8.34901 20.4787C8.34901 20.228 8.33582 19.3966 8.33582 18.5125C5.68351 19.0008 4.99733 17.866 4.78621 17.2722C4.66745 16.9687 4.15282 16.0318 3.70417 15.7811C3.33469 15.5831 2.80687 15.0949 3.69097 15.0817C4.52229 15.0685 5.11609 15.847 5.31403 16.1637C6.26411 17.7604 7.7816 17.3117 8.3886 17.0346C8.48097 16.3485 8.75807 15.8866 9.06157 15.6227C6.71276 15.3588 4.25838 14.4483 4.25838 10.4105C4.25838 9.26244 4.66745 8.31236 5.34042 7.5734C5.23486 7.30949 4.86538 6.22745 5.44598 4.77594C5.44598 4.77594 6.33009 4.49883 8.34901 5.85798C9.19353 5.62046 10.0908 5.5017 10.9881 5.5017C11.8854 5.5017 12.7827 5.62046 13.6272 5.85798C15.6462 4.48564 16.5303 4.77594 16.5303 4.77594C17.1109 6.22745 16.7414 7.30949 16.6358 7.5734C17.3088 8.31236 17.7179 9.24924 17.7179 10.4105C17.7179 14.4615 15.2503 15.3588 12.9015 15.6227C13.2842 15.9526 13.614 16.586 13.614 17.5757C13.614 18.9876 13.6009 20.1224 13.6009 20.4787C13.6009 20.7558 13.7988 21.0857 14.3266 20.9801C16.4222 20.2726 18.2432 18.9257 19.5333 17.1291C20.8234 15.3324 21.5176 13.1765 21.5182 10.9647C21.5182 5.13222 16.7942 0.408203 10.9617 0.408203Z" fill="#264478"/>
</svg>
