<svg width="15" height="14" viewBox="0 0 15 14" fill="none" xmlns="http://www.w3.org/2000/svg">
<path fill-rule="evenodd" clip-rule="evenodd" d="M10.5352 8.33987C10.3675 8.25605 9.54572 7.85218 9.39272 7.79593C9.23972 7.74024 9.12835 7.71268 9.01641 7.88031C8.90504 8.04681 8.58498 8.42368 8.48766 8.53505C8.38979 8.64699 8.29248 8.66049 8.12542 8.57724C7.95835 8.49287 7.41948 8.3168 6.78105 7.74756C6.28436 7.30431 5.94855 6.757 5.85124 6.58937C5.75393 6.42231 5.84055 6.33175 5.92436 6.2485C5.99974 6.17369 6.09142 6.05331 6.17524 5.956C6.25905 5.85813 6.28661 5.78838 6.3423 5.67644C6.39855 5.56507 6.37042 5.46775 6.32824 5.38394C6.28661 5.30013 5.95249 4.47719 5.81299 4.14251C5.67743 3.81682 5.53961 3.86126 5.43724 3.85563C5.33937 3.85113 5.22799 3.85001 5.11662 3.85001C5.00524 3.85001 4.82412 3.89163 4.67112 4.05926C4.51756 4.22632 4.08612 4.63076 4.08612 5.45369C4.08612 6.27606 4.68462 7.07087 4.76843 7.18281C4.85224 7.29418 5.94686 8.9828 7.62367 9.70674C8.02304 9.87886 8.3341 9.9818 8.57654 10.0583C8.97704 10.186 9.34154 10.168 9.62954 10.1247C9.95016 10.0769 10.6184 9.72024 10.7579 9.32986C10.8968 8.93949 10.8968 8.6048 10.8552 8.53505C10.8136 8.4653 10.7022 8.42368 10.5346 8.33987H10.5352ZM7.48529 12.504H7.48304C6.4871 12.5042 5.50945 12.2365 4.65255 11.7289L4.45006 11.6085L2.34519 12.1609L2.90712 10.1089L2.77494 9.89855C2.21814 9.01225 1.92348 7.98649 1.925 6.93981C1.92613 3.8742 4.42024 1.38008 7.48754 1.38008C8.97254 1.38008 10.3687 1.95945 11.4183 3.0102C11.936 3.52577 12.3463 4.13889 12.6256 4.81407C12.9048 5.48926 13.0474 6.21311 13.045 6.94375C13.0439 10.0094 10.5498 12.504 7.48529 12.504ZM12.217 2.21202C11.5973 1.58816 10.8598 1.09351 10.0475 0.756721C9.23519 0.419933 8.3641 0.247707 7.48473 0.250023C3.79812 0.250023 0.796633 3.25095 0.795508 6.93925C0.793799 8.11304 1.10172 9.26652 1.68819 10.2833L0.739258 13.75L4.28524 12.8196C5.26617 13.354 6.36541 13.6341 7.48248 13.6341H7.48529C11.1719 13.6341 14.1734 10.6332 14.1745 6.94431C14.1772 6.06528 14.0056 5.19444 13.6696 4.38215C13.3336 3.56987 12.8399 2.83227 12.217 2.21202Z" fill="#F2F5FA"/>
</svg>
