<svg width="15" height="14" viewBox="0 0 15 14" fill="none" xmlns="http://www.w3.org/2000/svg">
<path fill-rule="evenodd" clip-rule="evenodd" d="M5.7003 4.8783H8.3001V6.1733C8.6746 5.4285 9.635 4.7593 11.0777 4.7593C13.8434 4.7593 14.5 6.2419 14.5 8.9621V14H11.7V9.5816C11.7 8.0325 11.3255 7.1589 10.3721 7.1589C9.0498 7.1589 8.5003 8.1004 8.5003 9.5809V14H5.7003V4.8783ZM0.899 13.881H3.699V4.7593H0.899V13.881ZM4.1001 1.785C4.1002 2.01969 4.05366 2.25206 3.96317 2.46861C3.87268 2.68516 3.74006 2.88156 3.573 3.0464C3.23448 3.38284 2.77627 3.57116 2.299 3.57C1.82257 3.56968 1.36542 3.38184 1.0264 3.0471C0.859948 2.8817 0.72777 2.68508 0.637441 2.4685C0.547111 2.25193 0.500405 2.01966 0.5 1.785C0.5 1.3111 0.689 0.8575 1.0271 0.5229C1.36582 0.187711 1.82317 -0.000209448 2.2997 1.75185e-07C2.7771 1.75185e-07 3.2349 0.1883 3.573 0.5229C3.9104 0.8575 4.1001 1.3111 4.1001 1.785Z" fill="#0A9C51"/>
</svg>
