<svg width="18" height="18" viewBox="0 0 18 18" fill="none" xmlns="http://www.w3.org/2000/svg">
<path d="M0.905623 6.87027C0.905881 5.53376 1.34719 4.23469 2.16109 3.17458C2.97498 2.11447 4.11597 1.35259 5.40706 1.00711C6.69815 0.661628 8.06716 0.751871 9.30172 1.26384C10.5363 1.7758 11.5674 2.68087 12.2351 3.83865C12.9028 4.99642 13.1698 6.34218 12.9946 7.66716C12.8194 8.99214 12.2119 10.2223 11.2662 11.1667C10.3206 12.1112 9.08966 12.7172 7.76447 12.8907C6.43927 13.0643 5.09384 12.7956 3.93691 12.1265L1.57137 12.9156C1.48398 12.9448 1.39027 12.9496 1.30037 12.9294C1.21047 12.9092 1.12779 12.8649 1.06125 12.8011C0.994705 12.7374 0.946832 12.6567 0.922794 12.5678C0.898756 12.4788 0.899465 12.385 0.924847 12.2964L1.64523 9.7761C1.15858 8.88497 0.904223 7.88562 0.905623 6.87027ZM5.45862 5.35261C5.32445 5.35261 5.19578 5.40591 5.1009 5.50078C5.00603 5.59565 4.95273 5.72433 4.95273 5.8585C4.95273 5.99267 5.00603 6.12134 5.1009 6.21621C5.19578 6.31109 5.32445 6.36439 5.45862 6.36439H8.49395C8.62812 6.36439 8.7568 6.31109 8.85167 6.21621C8.94654 6.12134 8.99984 5.99267 8.99984 5.8585C8.99984 5.72433 8.94654 5.59565 8.85167 5.50078C8.7568 5.40591 8.62812 5.35261 8.49395 5.35261H5.45862ZM7.48217 7.37616H5.45862C5.32445 7.37616 5.19578 7.42946 5.1009 7.52433C5.00603 7.61921 4.95273 7.74788 4.95273 7.88205C4.95273 8.01622 5.00603 8.1449 5.1009 8.23977C5.19578 8.33464 5.32445 8.38794 5.45862 8.38794H7.48217C7.61634 8.38794 7.74502 8.33464 7.83989 8.23977C7.93476 8.1449 7.98806 8.01622 7.98806 7.88205C7.98806 7.74788 7.93476 7.61921 7.83989 7.52433C7.74502 7.42946 7.61634 7.37616 7.48217 7.37616Z" fill="#289B5F"/>
<path d="M11.302 14.9111L8.87171 13.6969C9.3169 13.5725 9.74488 13.4066 10.1496 13.2032L11.5286 13.8932L16.0816 11.6167V10.9176C16.0816 10.6493 15.975 10.3919 15.7853 10.2022C15.5956 10.0124 15.3382 9.90582 15.0699 9.90582H13.3761C13.5309 9.58205 13.6605 9.24311 13.7647 8.89404H15.0699C15.6065 8.89404 16.1212 9.10724 16.5007 9.48673C16.8802 9.86622 17.0934 10.3809 17.0934 10.9176V15.9765C17.0934 16.5132 16.8802 17.0279 16.5007 17.4074C16.1212 17.7868 15.6065 18 15.0699 18H7.98742C7.45074 18 6.93604 17.7868 6.55655 17.4074C6.17706 17.0279 5.96387 16.5132 5.96387 15.9765V13.8821C6.29472 13.9286 6.63164 13.9529 6.97564 13.9529V15.9765C6.97564 16.2448 7.08224 16.5022 7.27199 16.6919C7.46173 16.8817 7.71908 16.9883 7.98742 16.9883H15.0699C15.3382 16.9883 15.5956 16.8817 15.7853 16.6919C15.975 16.5022 16.0816 16.2448 16.0816 15.9765V12.7479L11.7553 14.9111C11.6849 14.9463 11.6073 14.9647 11.5286 14.9647C11.45 14.9647 11.3724 14.9463 11.302 14.9111Z" fill="#289B5F"/>
</svg>
